<mxfile host="app.diagrams.net" agent="Mozilla/5.0 (Windows NT 10.0; Win64; x64) AppleWebKit/537.36 (KHTML, like Gecko) Chrome/131.0.0.0 Safari/537.36 Edg/131.0.0.0" version="25.0.3" pages="3">
  <diagram name="Pagina-1" id="FI2rNc1e_vGGJepNtOLL">
    <mxGraphModel dx="1426" dy="755" grid="1" gridSize="10" guides="1" tooltips="1" connect="1" arrows="1" fold="1" page="1" pageScale="1" pageWidth="1169" pageHeight="827" math="0" shadow="0">
      <root>
        <mxCell id="0" />
        <mxCell id="1" parent="0" />
        <mxCell id="itpUbGGaeBbbgcCKHhD--1" value="" style="rounded=0;whiteSpace=wrap;html=1;fillColor=#f5f5f5;fontColor=#333333;strokeColor=#666666;fontSize=20;" vertex="1" parent="1">
          <mxGeometry x="200" y="80" width="700" height="320" as="geometry" />
        </mxCell>
        <mxCell id="itpUbGGaeBbbgcCKHhD--2" value="" style="rounded=0;whiteSpace=wrap;html=1;fillColor=none;strokeWidth=4;strokeColor=#2E5FFF;fontSize=20;" vertex="1" parent="1">
          <mxGeometry x="420" y="240" width="210" height="80" as="geometry" />
        </mxCell>
        <mxCell id="itpUbGGaeBbbgcCKHhD--3" value="" style="shape=flexArrow;endArrow=classic;html=1;rounded=0;fillColor=#ffff88;strokeColor=#36393d;fontSize=20;" edge="1" parent="1">
          <mxGeometry width="50" height="50" relative="1" as="geometry">
            <mxPoint x="350" y="240" as="sourcePoint" />
            <mxPoint x="420" y="240" as="targetPoint" />
          </mxGeometry>
        </mxCell>
        <mxCell id="itpUbGGaeBbbgcCKHhD--4" value="&lt;b&gt;&lt;font&gt;BITPLANE&lt;/font&gt;&lt;/b&gt;&lt;div&gt;&lt;b&gt;&lt;font&gt;POINTERS&lt;/font&gt;&lt;/b&gt;&lt;/div&gt;" style="text;html=1;align=left;verticalAlign=middle;whiteSpace=wrap;rounded=0;fontSize=20;" vertex="1" parent="1">
          <mxGeometry x="310" y="180" width="60" height="30" as="geometry" />
        </mxCell>
        <mxCell id="itpUbGGaeBbbgcCKHhD--5" value="&lt;font&gt;Map&lt;/font&gt;" style="text;html=1;align=center;verticalAlign=middle;whiteSpace=wrap;rounded=0;fontSize=20;" vertex="1" parent="1">
          <mxGeometry x="840" y="80" width="60" height="30" as="geometry" />
        </mxCell>
        <mxCell id="itpUbGGaeBbbgcCKHhD--6" value="&lt;font&gt;Camera&lt;/font&gt;" style="text;html=1;align=center;verticalAlign=middle;whiteSpace=wrap;rounded=0;fontSize=20;" vertex="1" parent="1">
          <mxGeometry x="490" y="265" width="60" height="30" as="geometry" />
        </mxCell>
        <mxCell id="itpUbGGaeBbbgcCKHhD--7" value="" style="endArrow=classic;startArrow=classic;html=1;rounded=0;entryX=0;entryY=0;entryDx=0;entryDy=0;fontSize=20;" edge="1" parent="1" target="itpUbGGaeBbbgcCKHhD--2">
          <mxGeometry width="50" height="50" relative="1" as="geometry">
            <mxPoint x="200" y="240" as="sourcePoint" />
            <mxPoint x="290" y="240" as="targetPoint" />
          </mxGeometry>
        </mxCell>
        <mxCell id="itpUbGGaeBbbgcCKHhD--8" value="offset_x" style="text;html=1;align=center;verticalAlign=middle;whiteSpace=wrap;rounded=0;fontSize=20;" vertex="1" parent="1">
          <mxGeometry x="270" y="250" width="60" height="30" as="geometry" />
        </mxCell>
        <mxCell id="itpUbGGaeBbbgcCKHhD--9" value="" style="endArrow=classic;startArrow=classic;html=1;rounded=0;entryX=0.489;entryY=-0.004;entryDx=0;entryDy=0;entryPerimeter=0;fontSize=20;" edge="1" parent="1">
          <mxGeometry width="50" height="50" relative="1" as="geometry">
            <mxPoint x="420" y="240" as="sourcePoint" />
            <mxPoint x="421.32000000000016" y="77.91999999999996" as="targetPoint" />
          </mxGeometry>
        </mxCell>
        <mxCell id="itpUbGGaeBbbgcCKHhD--10" value="&lt;font&gt;offset_y&lt;/font&gt;" style="text;html=1;align=center;verticalAlign=middle;whiteSpace=wrap;rounded=0;fontSize=20;" vertex="1" parent="1">
          <mxGeometry x="430" y="110" width="60" height="30" as="geometry" />
        </mxCell>
        <mxCell id="itpUbGGaeBbbgcCKHhD--11" value="&lt;font&gt;map base address&lt;/font&gt;" style="text;html=1;align=center;verticalAlign=middle;whiteSpace=wrap;rounded=0;fontSize=20;" vertex="1" parent="1">
          <mxGeometry x="120" y="20" width="190" height="30" as="geometry" />
        </mxCell>
        <mxCell id="itpUbGGaeBbbgcCKHhD--12" value="" style="endArrow=classic;html=1;rounded=0;fontSize=20;" edge="1" parent="1">
          <mxGeometry width="50" height="50" relative="1" as="geometry">
            <mxPoint x="200" y="40" as="sourcePoint" />
            <mxPoint x="200" y="80" as="targetPoint" />
          </mxGeometry>
        </mxCell>
      </root>
    </mxGraphModel>
  </diagram>
  <diagram name="Pagina-2" id="2U58CeYq9SHYdR-cPIjI">
    <mxGraphModel dx="1426" dy="755" grid="1" gridSize="10" guides="1" tooltips="1" connect="1" arrows="1" fold="1" page="1" pageScale="1" pageWidth="1169" pageHeight="827" math="0" shadow="0">
      <root>
        <mxCell id="R9GFBZVPqq51Kn8JgUHc-0" />
        <mxCell id="R9GFBZVPqq51Kn8JgUHc-1" parent="R9GFBZVPqq51Kn8JgUHc-0" />
        <mxCell id="R9GFBZVPqq51Kn8JgUHc-2" value="" style="rounded=0;whiteSpace=wrap;html=1;fillColor=#f5f5f5;fontColor=#333333;strokeColor=#666666;fontSize=20;" vertex="1" parent="R9GFBZVPqq51Kn8JgUHc-1">
          <mxGeometry x="200" y="80" width="700" height="320" as="geometry" />
        </mxCell>
        <mxCell id="R9GFBZVPqq51Kn8JgUHc-3" value="" style="rounded=0;whiteSpace=wrap;html=1;fillColor=none;strokeWidth=4;strokeColor=#2E5FFF;fontSize=20;" vertex="1" parent="R9GFBZVPqq51Kn8JgUHc-1">
          <mxGeometry x="420" y="240" width="210" height="80" as="geometry" />
        </mxCell>
        <mxCell id="R9GFBZVPqq51Kn8JgUHc-6" value="&lt;font&gt;Map&lt;/font&gt;" style="text;html=1;align=center;verticalAlign=middle;whiteSpace=wrap;rounded=0;fontSize=20;" vertex="1" parent="R9GFBZVPqq51Kn8JgUHc-1">
          <mxGeometry x="840" y="80" width="60" height="30" as="geometry" />
        </mxCell>
        <mxCell id="R9GFBZVPqq51Kn8JgUHc-7" value="&lt;font&gt;Camera&lt;/font&gt;" style="text;html=1;align=center;verticalAlign=middle;whiteSpace=wrap;rounded=0;fontSize=20;" vertex="1" parent="R9GFBZVPqq51Kn8JgUHc-1">
          <mxGeometry x="490" y="265" width="60" height="30" as="geometry" />
        </mxCell>
        <mxCell id="R9GFBZVPqq51Kn8JgUHc-10" value="" style="endArrow=classic;startArrow=classic;html=1;rounded=0;entryX=0.489;entryY=-0.004;entryDx=0;entryDy=0;entryPerimeter=0;fontSize=20;" edge="1" parent="R9GFBZVPqq51Kn8JgUHc-1">
          <mxGeometry width="50" height="50" relative="1" as="geometry">
            <mxPoint x="420" y="240" as="sourcePoint" />
            <mxPoint x="421.32000000000016" y="77.91999999999996" as="targetPoint" />
          </mxGeometry>
        </mxCell>
        <mxCell id="R9GFBZVPqq51Kn8JgUHc-11" value="&lt;font&gt;camera_y&lt;/font&gt;" style="text;html=1;align=center;verticalAlign=middle;whiteSpace=wrap;rounded=0;fontSize=20;" vertex="1" parent="R9GFBZVPqq51Kn8JgUHc-1">
          <mxGeometry x="440" y="160" width="60" height="30" as="geometry" />
        </mxCell>
        <mxCell id="R9GFBZVPqq51Kn8JgUHc-12" value="&lt;font&gt;map base address&lt;/font&gt;" style="text;html=1;align=center;verticalAlign=middle;whiteSpace=wrap;rounded=0;fontSize=20;" vertex="1" parent="R9GFBZVPqq51Kn8JgUHc-1">
          <mxGeometry x="120" y="20" width="190" height="30" as="geometry" />
        </mxCell>
        <mxCell id="R9GFBZVPqq51Kn8JgUHc-13" value="" style="endArrow=classic;html=1;rounded=0;fontSize=20;" edge="1" parent="R9GFBZVPqq51Kn8JgUHc-1">
          <mxGeometry width="50" height="50" relative="1" as="geometry">
            <mxPoint x="200" y="40" as="sourcePoint" />
            <mxPoint x="200" y="80" as="targetPoint" />
          </mxGeometry>
        </mxCell>
        <mxCell id="aFQrBoqrKoaeiePaPwlI-0" value="" style="endArrow=classic;startArrow=classic;html=1;rounded=0;" edge="1" parent="R9GFBZVPqq51Kn8JgUHc-1">
          <mxGeometry width="50" height="50" relative="1" as="geometry">
            <mxPoint x="200" y="109" as="sourcePoint" />
            <mxPoint x="900" y="109" as="targetPoint" />
          </mxGeometry>
        </mxCell>
        <mxCell id="aFQrBoqrKoaeiePaPwlI-2" value="&lt;font style=&quot;font-size: 20px;&quot;&gt;MAP_ROW_SIZE&lt;/font&gt;" style="text;html=1;align=center;verticalAlign=middle;whiteSpace=wrap;rounded=0;" vertex="1" parent="R9GFBZVPqq51Kn8JgUHc-1">
          <mxGeometry x="530" y="80" width="60" height="30" as="geometry" />
        </mxCell>
        <mxCell id="aFQrBoqrKoaeiePaPwlI-3" value="&lt;font style=&quot;font-size: 20px;&quot;&gt;offset_y = camera_y * MAP_ROW_SIZE&lt;/font&gt;" style="text;html=1;align=left;verticalAlign=middle;whiteSpace=wrap;rounded=0;" vertex="1" parent="R9GFBZVPqq51Kn8JgUHc-1">
          <mxGeometry x="200" y="440" width="430" height="30" as="geometry" />
        </mxCell>
      </root>
    </mxGraphModel>
  </diagram>
  <diagram name="Pagina-3" id="MtCPb95Chx6r1LrIvO0H">
    <mxGraphModel dx="1426" dy="755" grid="1" gridSize="10" guides="1" tooltips="1" connect="1" arrows="1" fold="1" page="1" pageScale="1" pageWidth="1169" pageHeight="827" math="0" shadow="0">
      <root>
        <mxCell id="ucXxFNXkR14YuEzpwUdi-0" />
        <mxCell id="ucXxFNXkR14YuEzpwUdi-1" parent="ucXxFNXkR14YuEzpwUdi-0" />
        <mxCell id="b9EbCWD8WqC9zocZQKBe-3" style="edgeStyle=orthogonalEdgeStyle;rounded=0;orthogonalLoop=1;jettySize=auto;html=1;exitX=0.5;exitY=1;exitDx=0;exitDy=0;fontSize=20;" edge="1" parent="ucXxFNXkR14YuEzpwUdi-1" source="b9EbCWD8WqC9zocZQKBe-26" target="b9EbCWD8WqC9zocZQKBe-1">
          <mxGeometry relative="1" as="geometry" />
        </mxCell>
        <mxCell id="b9EbCWD8WqC9zocZQKBe-11" style="edgeStyle=orthogonalEdgeStyle;rounded=0;orthogonalLoop=1;jettySize=auto;html=1;exitX=0.5;exitY=1;exitDx=0;exitDy=0;fontSize=20;" edge="1" parent="ucXxFNXkR14YuEzpwUdi-1" source="b9EbCWD8WqC9zocZQKBe-26" target="b9EbCWD8WqC9zocZQKBe-2">
          <mxGeometry relative="1" as="geometry">
            <mxPoint x="940" y="420" as="targetPoint" />
          </mxGeometry>
        </mxCell>
        <mxCell id="b9EbCWD8WqC9zocZQKBe-28" style="edgeStyle=orthogonalEdgeStyle;rounded=0;orthogonalLoop=1;jettySize=auto;html=1;entryX=0;entryY=0.5;entryDx=0;entryDy=0;exitX=0.5;exitY=1;exitDx=0;exitDy=0;fontSize=20;" edge="1" parent="ucXxFNXkR14YuEzpwUdi-1" source="b9EbCWD8WqC9zocZQKBe-0" target="b9EbCWD8WqC9zocZQKBe-26">
          <mxGeometry relative="1" as="geometry" />
        </mxCell>
        <mxCell id="b9EbCWD8WqC9zocZQKBe-0" value="camera_x" style="rounded=0;whiteSpace=wrap;html=1;fontSize=20;" vertex="1" parent="ucXxFNXkR14YuEzpwUdi-1">
          <mxGeometry x="430" y="70" width="120" height="60" as="geometry" />
        </mxCell>
        <mxCell id="b9EbCWD8WqC9zocZQKBe-7" style="edgeStyle=orthogonalEdgeStyle;rounded=0;orthogonalLoop=1;jettySize=auto;html=1;entryX=0;entryY=0.5;entryDx=0;entryDy=0;fontSize=20;" edge="1" parent="ucXxFNXkR14YuEzpwUdi-1" source="b9EbCWD8WqC9zocZQKBe-1" target="b9EbCWD8WqC9zocZQKBe-6">
          <mxGeometry relative="1" as="geometry" />
        </mxCell>
        <mxCell id="b9EbCWD8WqC9zocZQKBe-1" value="quotient" style="rounded=0;whiteSpace=wrap;html=1;fontSize=20;" vertex="1" parent="ucXxFNXkR14YuEzpwUdi-1">
          <mxGeometry x="240" y="420" width="120" height="60" as="geometry" />
        </mxCell>
        <mxCell id="b9EbCWD8WqC9zocZQKBe-15" style="edgeStyle=orthogonalEdgeStyle;rounded=0;orthogonalLoop=1;jettySize=auto;html=1;entryX=1;entryY=0.5;entryDx=0;entryDy=0;fontSize=20;" edge="1" parent="ucXxFNXkR14YuEzpwUdi-1" source="b9EbCWD8WqC9zocZQKBe-2" target="b9EbCWD8WqC9zocZQKBe-13">
          <mxGeometry relative="1" as="geometry">
            <mxPoint x="940" y="480" as="sourcePoint" />
          </mxGeometry>
        </mxCell>
        <mxCell id="b9EbCWD8WqC9zocZQKBe-2" value="&lt;font style=&quot;font-size: 20px;&quot;&gt;remainder&lt;/font&gt;" style="rounded=0;whiteSpace=wrap;html=1;" vertex="1" parent="ucXxFNXkR14YuEzpwUdi-1">
          <mxGeometry x="880" y="420" width="120" height="60" as="geometry" />
        </mxCell>
        <mxCell id="b9EbCWD8WqC9zocZQKBe-8" style="edgeStyle=orthogonalEdgeStyle;rounded=0;orthogonalLoop=1;jettySize=auto;html=1;entryX=1;entryY=0.5;entryDx=0;entryDy=0;fontSize=20;" edge="1" parent="ucXxFNXkR14YuEzpwUdi-1" source="b9EbCWD8WqC9zocZQKBe-5" target="b9EbCWD8WqC9zocZQKBe-6">
          <mxGeometry relative="1" as="geometry" />
        </mxCell>
        <mxCell id="b9EbCWD8WqC9zocZQKBe-5" value="2" style="rounded=0;whiteSpace=wrap;html=1;fontSize=20;" vertex="1" parent="ucXxFNXkR14YuEzpwUdi-1">
          <mxGeometry x="440" y="420" width="120" height="60" as="geometry" />
        </mxCell>
        <mxCell id="b9EbCWD8WqC9zocZQKBe-10" style="edgeStyle=orthogonalEdgeStyle;rounded=0;orthogonalLoop=1;jettySize=auto;html=1;fontSize=20;" edge="1" parent="ucXxFNXkR14YuEzpwUdi-1" source="b9EbCWD8WqC9zocZQKBe-6" target="b9EbCWD8WqC9zocZQKBe-9">
          <mxGeometry relative="1" as="geometry" />
        </mxCell>
        <mxCell id="b9EbCWD8WqC9zocZQKBe-6" value="x" style="ellipse;whiteSpace=wrap;html=1;aspect=fixed;fontSize=20;" vertex="1" parent="ucXxFNXkR14YuEzpwUdi-1">
          <mxGeometry x="360" y="500" width="80" height="80" as="geometry" />
        </mxCell>
        <mxCell id="b9EbCWD8WqC9zocZQKBe-9" value="offset_x" style="rounded=0;whiteSpace=wrap;html=1;fontSize=20;" vertex="1" parent="ucXxFNXkR14YuEzpwUdi-1">
          <mxGeometry x="340" y="630" width="120" height="60" as="geometry" />
        </mxCell>
        <mxCell id="b9EbCWD8WqC9zocZQKBe-14" style="edgeStyle=orthogonalEdgeStyle;rounded=0;orthogonalLoop=1;jettySize=auto;html=1;entryX=0;entryY=0.5;entryDx=0;entryDy=0;fontSize=20;" edge="1" parent="ucXxFNXkR14YuEzpwUdi-1" source="b9EbCWD8WqC9zocZQKBe-12" target="b9EbCWD8WqC9zocZQKBe-13">
          <mxGeometry relative="1" as="geometry" />
        </mxCell>
        <mxCell id="b9EbCWD8WqC9zocZQKBe-12" value="$f" style="rounded=0;whiteSpace=wrap;html=1;fontSize=20;" vertex="1" parent="ucXxFNXkR14YuEzpwUdi-1">
          <mxGeometry x="700" y="420" width="120" height="60" as="geometry" />
        </mxCell>
        <mxCell id="b9EbCWD8WqC9zocZQKBe-20" style="edgeStyle=orthogonalEdgeStyle;rounded=0;orthogonalLoop=1;jettySize=auto;html=1;entryX=0.5;entryY=0;entryDx=0;entryDy=0;exitX=0.5;exitY=1;exitDx=0;exitDy=0;fontSize=20;" edge="1" parent="ucXxFNXkR14YuEzpwUdi-1" source="b9EbCWD8WqC9zocZQKBe-13" target="b9EbCWD8WqC9zocZQKBe-18">
          <mxGeometry relative="1" as="geometry" />
        </mxCell>
        <mxCell id="b9EbCWD8WqC9zocZQKBe-23" style="edgeStyle=orthogonalEdgeStyle;rounded=0;orthogonalLoop=1;jettySize=auto;html=1;fontSize=20;" edge="1" parent="ucXxFNXkR14YuEzpwUdi-1" source="b9EbCWD8WqC9zocZQKBe-13" target="b9EbCWD8WqC9zocZQKBe-21">
          <mxGeometry relative="1" as="geometry" />
        </mxCell>
        <mxCell id="b9EbCWD8WqC9zocZQKBe-13" value="-" style="ellipse;whiteSpace=wrap;html=1;aspect=fixed;fontSize=20;" vertex="1" parent="ucXxFNXkR14YuEzpwUdi-1">
          <mxGeometry x="810" y="507" width="80" height="80" as="geometry" />
        </mxCell>
        <mxCell id="b9EbCWD8WqC9zocZQKBe-22" style="edgeStyle=orthogonalEdgeStyle;rounded=0;orthogonalLoop=1;jettySize=auto;html=1;entryX=0;entryY=0.5;entryDx=0;entryDy=0;exitX=0.5;exitY=1;exitDx=0;exitDy=0;fontSize=20;" edge="1" parent="ucXxFNXkR14YuEzpwUdi-1" source="b9EbCWD8WqC9zocZQKBe-18" target="b9EbCWD8WqC9zocZQKBe-21">
          <mxGeometry relative="1" as="geometry" />
        </mxCell>
        <mxCell id="b9EbCWD8WqC9zocZQKBe-18" value="lshift 4" style="ellipse;whiteSpace=wrap;html=1;aspect=fixed;fontSize=20;" vertex="1" parent="ucXxFNXkR14YuEzpwUdi-1">
          <mxGeometry x="690" y="650" width="80" height="80" as="geometry" />
        </mxCell>
        <mxCell id="b9EbCWD8WqC9zocZQKBe-25" style="edgeStyle=orthogonalEdgeStyle;rounded=0;orthogonalLoop=1;jettySize=auto;html=1;entryX=0.5;entryY=0;entryDx=0;entryDy=0;fontSize=20;" edge="1" parent="ucXxFNXkR14YuEzpwUdi-1" source="b9EbCWD8WqC9zocZQKBe-21" target="b9EbCWD8WqC9zocZQKBe-24">
          <mxGeometry relative="1" as="geometry" />
        </mxCell>
        <mxCell id="b9EbCWD8WqC9zocZQKBe-21" value="or" style="ellipse;whiteSpace=wrap;html=1;aspect=fixed;fontSize=20;" vertex="1" parent="ucXxFNXkR14YuEzpwUdi-1">
          <mxGeometry x="810" y="760" width="80" height="80" as="geometry" />
        </mxCell>
        <mxCell id="b9EbCWD8WqC9zocZQKBe-24" value="scroll_x" style="rounded=0;whiteSpace=wrap;html=1;fontSize=20;" vertex="1" parent="ucXxFNXkR14YuEzpwUdi-1">
          <mxGeometry x="790" y="890" width="120" height="60" as="geometry" />
        </mxCell>
        <mxCell id="b9EbCWD8WqC9zocZQKBe-26" value="/" style="ellipse;whiteSpace=wrap;html=1;aspect=fixed;fontSize=20;" vertex="1" parent="ucXxFNXkR14YuEzpwUdi-1">
          <mxGeometry x="580" y="160" width="80" height="80" as="geometry" />
        </mxCell>
        <mxCell id="b9EbCWD8WqC9zocZQKBe-29" style="edgeStyle=orthogonalEdgeStyle;rounded=0;orthogonalLoop=1;jettySize=auto;html=1;entryX=1;entryY=0.5;entryDx=0;entryDy=0;exitX=0.5;exitY=1;exitDx=0;exitDy=0;fontSize=20;" edge="1" parent="ucXxFNXkR14YuEzpwUdi-1" source="b9EbCWD8WqC9zocZQKBe-27" target="b9EbCWD8WqC9zocZQKBe-26">
          <mxGeometry relative="1" as="geometry" />
        </mxCell>
        <mxCell id="b9EbCWD8WqC9zocZQKBe-27" value="16" style="rounded=0;whiteSpace=wrap;html=1;fontSize=20;" vertex="1" parent="ucXxFNXkR14YuEzpwUdi-1">
          <mxGeometry x="700" y="70" width="120" height="60" as="geometry" />
        </mxCell>
      </root>
    </mxGraphModel>
  </diagram>
</mxfile>
